<?xml version="1.0" encoding="UTF-8" standalone="no"?>
<!DOCTYPE svg PUBLIC "-//W3C//DTD SVG 1.1//EN" "http://www.w3.org/Graphics/SVG/1.1/DTD/svg11.dtd">
<svg width="100%" height="100%" viewBox="0 0 1404 1872" version="1.1" xmlns="http://www.w3.org/2000/svg" xmlns:xlink="http://www.w3.org/1999/xlink" xml:space="preserve" xmlns:serif="http://www.serif.com/" style="fill-rule:evenodd;clip-rule:evenodd;stroke-miterlimit:10;">
    <g id="surface1">
        <rect x="0" y="0" width="1404" height="1872" style="fill:rgb(254,254,254);"/>
        <g transform="matrix(20,0,0,20,1318.3,136.516)">
        </g>
        <text x="1254.93px" y="136.516px" style="font-family:'ArialMT', 'Arial', sans-serif;font-size:20px;fill-opacity:0.76;">When?</text>
        <g transform="matrix(2.36002,0,0,0.927643,5.15344,5.50926)">
            <rect x="-3.789" y="-6.707" width="594.983" height="109.894" style="fill:rgb(34,34,34);fill-opacity:0.24;"/>
        </g>
        <g transform="matrix(0.985228,0,0,0.927643,7.89561,945.233)">
            <rect x="-3.789" y="-6.707" width="594.983" height="109.894" style="fill:rgb(34,34,34);fill-opacity:0.24;"/>
        </g>
        <g transform="matrix(8.17385e-17,1.33489,1.33489,-8.17385e-17,590.586,1.97911)">
            <path d="M0,0L1402,0" style="fill:none;fill-rule:nonzero;stroke:black;stroke-width:4.12px;"/>
        </g>
        <g transform="matrix(7.73833e-17,1.26376,1.26376,-7.73833e-17,1174.63,101.698)">
            <path d="M0,0L1402,0" style="fill:none;fill-rule:nonzero;stroke:black;stroke-width:4.12px;"/>
        </g>
        <g transform="matrix(8.17385e-17,1.33489,1.33489,-8.17385e-17,2.69786,1.97911)">
            <path d="M0,0L1402,0" style="fill:none;fill-rule:nonzero;stroke:black;stroke-width:4.12px;"/>
        </g>
        <g transform="matrix(8.17385e-17,1.33489,1.33489,-8.17385e-17,1401.59,1.97911)">
            <path d="M0,0L1402,0" style="fill:none;fill-rule:nonzero;stroke:black;stroke-width:4.12px;"/>
        </g>
        <g transform="matrix(0.421714,0,0,-1.12365,0.17479,937.738)">
            <path d="M0,0L1402,0" style="fill:none;fill-rule:nonzero;stroke:black;stroke-width:4.12px;"/>
        </g>
        <g transform="matrix(0.420851,0,0,-1.12135,0.17479,1039.47)">
            <path d="M0,0L1402,0" style="fill:none;fill-rule:nonzero;stroke:black;stroke-width:4.12px;"/>
        </g>
        <g transform="matrix(0.997542,0,0,-2.65792,0.17479,101.77)">
            <path d="M0,0L1402,0" style="fill:none;fill-rule:nonzero;stroke:black;stroke-width:4.12px;"/>
        </g>
        <g transform="matrix(1.00159,0,0,-2.66871,0.17479,2.76417)">
            <path d="M0,0L1402,0" style="fill:none;fill-rule:nonzero;stroke:black;stroke-width:4.12px;"/>
        </g>
        <g transform="matrix(1,0,0,-1,1,154.5)">
            <path d="M0,0L1402,0" style="fill:none;fill-rule:nonzero;stroke:black;stroke-width:0.5px;"/>
        </g>
        <g transform="matrix(1,0,0,-1,1,206.5)">
            <path d="M0,0L1402,0" style="fill:none;fill-rule:nonzero;stroke:black;stroke-width:0.5px;"/>
        </g>
        <g transform="matrix(1,0,0,-1,1,258.5)">
            <path d="M0,0L1402,0" style="fill:none;fill-rule:nonzero;stroke:black;stroke-width:0.5px;"/>
        </g>
        <g transform="matrix(1,0,0,-1,1,310.5)">
            <path d="M0,0L1402,0" style="fill:none;fill-rule:nonzero;stroke:black;stroke-width:0.5px;"/>
        </g>
        <g transform="matrix(1,0,0,-1,1,362.5)">
            <path d="M0,0L1402,0" style="fill:none;fill-rule:nonzero;stroke:black;stroke-width:0.5px;"/>
        </g>
        <g transform="matrix(1,0,0,-1,1,414.5)">
            <path d="M0,0L1402,0" style="fill:none;fill-rule:nonzero;stroke:black;stroke-width:0.5px;"/>
        </g>
        <g transform="matrix(1,0,0,-1,1,466.5)">
            <path d="M0,0L1402,0" style="fill:none;fill-rule:nonzero;stroke:black;stroke-width:0.5px;"/>
        </g>
        <g transform="matrix(1,0,0,-1,1,518.5)">
            <path d="M0,0L1402,0" style="fill:none;fill-rule:nonzero;stroke:black;stroke-width:0.5px;"/>
        </g>
        <g transform="matrix(1,0,0,-1,1,570.5)">
            <path d="M0,0L1402,0" style="fill:none;fill-rule:nonzero;stroke:black;stroke-width:0.5px;"/>
        </g>
        <g transform="matrix(1,0,0,-1,1,622.5)">
            <path d="M0,0L1402,0" style="fill:none;fill-rule:nonzero;stroke:black;stroke-width:0.5px;"/>
        </g>
        <g transform="matrix(1,0,0,-1,1,674.5)">
            <path d="M0,0L1402,0" style="fill:none;fill-rule:nonzero;stroke:black;stroke-width:0.5px;"/>
        </g>
        <g transform="matrix(1,0,0,-1,1,726.5)">
            <path d="M0,0L1402,0" style="fill:none;fill-rule:nonzero;stroke:black;stroke-width:0.5px;"/>
        </g>
        <g transform="matrix(1,0,0,-1,1,778.5)">
            <path d="M0,0L1402,0" style="fill:none;fill-rule:nonzero;stroke:black;stroke-width:0.5px;"/>
        </g>
        <g transform="matrix(1,0,0,-1,1,830.5)">
            <path d="M0,0L1402,0" style="fill:none;fill-rule:nonzero;stroke:black;stroke-width:0.5px;"/>
        </g>
        <g transform="matrix(1,0,0,-1,1,882.5)">
            <path d="M0,0L1402,0" style="fill:none;fill-rule:nonzero;stroke:black;stroke-width:0.5px;"/>
        </g>
        <g transform="matrix(0.57879,0,0,-0.57879,591.537,936.5)">
            <path d="M0,0L1402,0" style="fill:none;fill-rule:nonzero;stroke:black;stroke-width:0.5px;"/>
        </g>
        <g transform="matrix(0.578987,0,0,-0.578987,591.261,986.5)">
            <path d="M0,0L1402,0" style="fill:none;fill-rule:nonzero;stroke:black;stroke-width:0.5px;"/>
        </g>
        <g transform="matrix(1,0,0,-1,1,1038.5)">
            <path d="M0,0L1402,0" style="fill:none;fill-rule:nonzero;stroke:black;stroke-width:0.5px;"/>
        </g>
        <g transform="matrix(1,0,0,-1,1,1090.5)">
            <path d="M0,0L1402,0" style="fill:none;fill-rule:nonzero;stroke:black;stroke-width:0.5px;"/>
        </g>
        <g transform="matrix(1,0,0,-1,1,1142.5)">
            <path d="M0,0L1402,0" style="fill:none;fill-rule:nonzero;stroke:black;stroke-width:0.5px;"/>
        </g>
        <g transform="matrix(1,0,0,-1,1,1194.5)">
            <path d="M0,0L1402,0" style="fill:none;fill-rule:nonzero;stroke:black;stroke-width:0.5px;"/>
        </g>
        <g transform="matrix(1,0,0,-1,1,1246.5)">
            <path d="M0,0L1402,0" style="fill:none;fill-rule:nonzero;stroke:black;stroke-width:0.5px;"/>
        </g>
        <g transform="matrix(1,0,0,-1,1,1298.5)">
            <path d="M0,0L1402,0" style="fill:none;fill-rule:nonzero;stroke:black;stroke-width:0.5px;"/>
        </g>
        <g transform="matrix(1,0,0,-1,1,1350.5)">
            <path d="M0,0L1402,0" style="fill:none;fill-rule:nonzero;stroke:black;stroke-width:0.5px;"/>
        </g>
        <g transform="matrix(1,0,0,-1,1,1402.5)">
            <path d="M0,0L1402,0" style="fill:none;fill-rule:nonzero;stroke:black;stroke-width:0.5px;"/>
        </g>
        <g transform="matrix(1,0,0,-1,1,1454.5)">
            <path d="M0,0L1402,0" style="fill:none;fill-rule:nonzero;stroke:black;stroke-width:0.5px;"/>
        </g>
        <g transform="matrix(1,0,0,-1,1,1506.5)">
            <path d="M0,0L1402,0" style="fill:none;fill-rule:nonzero;stroke:black;stroke-width:0.5px;"/>
        </g>
        <g transform="matrix(1,0,0,-1,1,1558.5)">
            <path d="M0,0L1402,0" style="fill:none;fill-rule:nonzero;stroke:black;stroke-width:0.5px;"/>
        </g>
        <g transform="matrix(1,0,0,-1,1,1610.5)">
            <path d="M0,0L1402,0" style="fill:none;fill-rule:nonzero;stroke:black;stroke-width:0.5px;"/>
        </g>
        <g transform="matrix(1,0,0,-1,1,1662.5)">
            <path d="M0,0L1402,0" style="fill:none;fill-rule:nonzero;stroke:black;stroke-width:0.5px;"/>
        </g>
        <g transform="matrix(1,0,0,-1,1,1714.5)">
            <path d="M0,0L1402,0" style="fill:none;fill-rule:nonzero;stroke:black;stroke-width:0.5px;"/>
        </g>
        <g transform="matrix(1,0,0,-1,1,1766.5)">
            <path d="M0,0L1402,0" style="fill:none;fill-rule:nonzero;stroke:black;stroke-width:0.5px;"/>
        </g>
        <g transform="matrix(1,0,0,-1,1,1818.5)">
            <path d="M0,0L1402,0" style="fill:none;fill-rule:nonzero;stroke:black;stroke-width:0.5px;"/>
        </g>
        <g transform="matrix(1,0,0,-1,1,1870.5)">
            <path d="M0,0L1402,0" style="fill:none;fill-rule:nonzero;stroke:black;stroke-width:0.5px;"/>
        </g>
        <g transform="matrix(1,0,0,1,-148.71,-16.3609)">
            <g transform="matrix(70,0,0,70,594.021,96.1153)">
            </g>
            <text x="298.469px" y="96.115px" style="font-family:'ArialMT', 'Arial', sans-serif;font-size:70px;">URGENT</text>
        </g>
        <g transform="matrix(1,0,0,1,-150.047,913.764)">
            <g transform="matrix(70,0,0,70,655.274,98.9969)">
            </g>
            <text x="236.47px" y="98.997px" style="font-family:'ArialMT', 'Arial', sans-serif;font-size:70px;">DELEGA<tspan x="515.274px 558.032px " y="98.997px 98.997px ">TE</tspan>D</text>
        </g>
        <g transform="matrix(1,0,0,1,437.944,-15.7608)">
            <g transform="matrix(70,0,0,70,759.979,97.0548)">
            </g>
            <text x="354.232px" y="97.055px" style="font-family:'ArialMT', 'Arial', sans-serif;font-size:70px;">IMPOR<tspan x="582.415px 619.979px 666.668px " y="97.055px 97.055px 97.055px ">TAN</tspan>T</text>
        </g>
        <g transform="matrix(20,0,0,20,912.801,138.191)">
        </g>
        <text x="854.999px" y="138.191px" style="font-family:'ArialMT', 'Arial', sans-serif;font-size:20px;fill-opacity:0.76;">What?</text>
    </g>
</svg>
