<?xml version="1.0" encoding="UTF-8" standalone="no"?>
<!DOCTYPE svg PUBLIC "-//W3C//DTD SVG 1.1//EN" "http://www.w3.org/Graphics/SVG/1.1/DTD/svg11.dtd">
<svg width="100%" height="100%" viewBox="0 0 1404 1872" version="1.1" xmlns="http://www.w3.org/2000/svg" xmlns:xlink="http://www.w3.org/1999/xlink" xml:space="preserve" xmlns:serif="http://www.serif.com/" style="fill-rule:evenodd;clip-rule:evenodd;stroke-miterlimit:10;">
    <g id="surface1">
        <rect x="0" y="0" width="1404" height="1872" style="fill:rgb(254,254,254);"/>
        <g transform="matrix(1,0,0,1,1254.93,240.397)">
            <text x="0px" y="0px" style="font-family:'ArialMT', 'Arial', sans-serif;font-size:20px;fill-opacity:0.76;">When?</text>
        </g>
        <g transform="matrix(2.36002,0,0,1.82062,5.15344,17.2469)">
            <rect x="-3.789" y="-6.707" width="594.983" height="109.894" style="fill:rgb(34,34,34);fill-opacity:0.24;"/>
        </g>
        <g transform="matrix(0.985228,0,0,0.927643,7.89561,1045.48)">
            <rect x="-3.789" y="-6.707" width="594.983" height="109.894" style="fill:rgb(34,34,34);fill-opacity:0.24;"/>
        </g>
        <g transform="matrix(8.17385e-17,1.33489,1.33489,-8.17385e-17,590.586,1.97911)">
            <path d="M0,0L1402,0" style="fill:none;fill-rule:nonzero;stroke:black;stroke-width:4.12px;"/>
        </g>
        <g transform="matrix(7.28121e-17,1.18911,1.18911,-7.28121e-17,1174.63,206.361)">
            <path d="M0,0L1402,0" style="fill:none;fill-rule:nonzero;stroke:black;stroke-width:4.12px;"/>
        </g>
        <g transform="matrix(8.17385e-17,1.33489,1.33489,-8.17385e-17,2.69786,1.97911)">
            <path d="M0,0L1402,0" style="fill:none;fill-rule:nonzero;stroke:black;stroke-width:4.12px;"/>
        </g>
        <g transform="matrix(8.17385e-17,1.33489,1.33489,-8.17385e-17,1401.59,1.97911)">
            <path d="M0,0L1402,0" style="fill:none;fill-rule:nonzero;stroke:black;stroke-width:4.12px;"/>
        </g>
        <g transform="matrix(0.421714,0,0,-1.12365,0.17479,1037.98)">
            <path d="M0,0L1402,0" style="fill:none;fill-rule:nonzero;stroke:black;stroke-width:4.12px;"/>
        </g>
        <g transform="matrix(0.420851,0,0,-1.12135,0.17479,1139.72)">
            <path d="M0,0L1402,0" style="fill:none;fill-rule:nonzero;stroke:black;stroke-width:4.12px;"/>
        </g>
        <g transform="matrix(0.997542,0,0,-2.65792,0.17479,205.651)">
            <path d="M0,0L1402,0" style="fill:none;fill-rule:nonzero;stroke:black;stroke-width:4.12px;"/>
        </g>
        <g transform="matrix(1.00159,0,0,-2.66871,0.17479,2.93837)">
            <path d="M0,0L1402,0" style="fill:none;fill-rule:nonzero;stroke:black;stroke-width:4.12px;"/>
        </g>
        <g transform="matrix(1,0,0,-1,1,258.381)">
            <path d="M0,0L1402,0" style="fill:none;fill-rule:nonzero;stroke:black;stroke-width:0.5px;"/>
        </g>
        <g transform="matrix(1,0,0,-1,1,310.5)">
            <path d="M0,0L1402,0" style="fill:none;fill-rule:nonzero;stroke:black;stroke-width:0.5px;"/>
        </g>
        <g transform="matrix(1,0,0,-1,1,362.5)">
            <path d="M0,0L1402,0" style="fill:none;fill-rule:nonzero;stroke:black;stroke-width:0.5px;"/>
        </g>
        <g transform="matrix(1,0,0,-1,1,414.5)">
            <path d="M0,0L1402,0" style="fill:none;fill-rule:nonzero;stroke:black;stroke-width:0.5px;"/>
        </g>
        <g transform="matrix(1,0,0,-1,1,466.5)">
            <path d="M0,0L1402,0" style="fill:none;fill-rule:nonzero;stroke:black;stroke-width:0.5px;"/>
        </g>
        <g transform="matrix(1,0,0,-1,1,518.5)">
            <path d="M0,0L1402,0" style="fill:none;fill-rule:nonzero;stroke:black;stroke-width:0.5px;"/>
        </g>
        <g transform="matrix(1,0,0,-1,1,570.5)">
            <path d="M0,0L1402,0" style="fill:none;fill-rule:nonzero;stroke:black;stroke-width:0.5px;"/>
        </g>
        <g transform="matrix(1,0,0,-1,1,622.5)">
            <path d="M0,0L1402,0" style="fill:none;fill-rule:nonzero;stroke:black;stroke-width:0.5px;"/>
        </g>
        <g transform="matrix(1,0,0,-1,1,674.5)">
            <path d="M0,0L1402,0" style="fill:none;fill-rule:nonzero;stroke:black;stroke-width:0.5px;"/>
        </g>
        <g transform="matrix(1,0,0,-1,1,726.5)">
            <path d="M0,0L1402,0" style="fill:none;fill-rule:nonzero;stroke:black;stroke-width:0.5px;"/>
        </g>
        <g transform="matrix(1,0,0,-1,1,778.5)">
            <path d="M0,0L1402,0" style="fill:none;fill-rule:nonzero;stroke:black;stroke-width:0.5px;"/>
        </g>
        <g transform="matrix(1,0,0,-1,1,830.5)">
            <path d="M0,0L1402,0" style="fill:none;fill-rule:nonzero;stroke:black;stroke-width:0.5px;"/>
        </g>
        <g transform="matrix(1,0,0,-1,1,882.5)">
            <path d="M0,0L1402,0" style="fill:none;fill-rule:nonzero;stroke:black;stroke-width:0.5px;"/>
        </g>
        <g transform="matrix(0.996816,5.11934e-17,-5.11934e-17,-0.57879,5.4643,936.5)">
            <path d="M0,0L1402,0" style="fill:none;fill-rule:nonzero;stroke:black;stroke-width:0.5px;"/>
        </g>
        <g transform="matrix(0.997155,5.12109e-17,-5.12109e-17,-0.578987,4.98896,986.5)">
            <path d="M0,0L1402,0" style="fill:none;fill-rule:nonzero;stroke:black;stroke-width:0.5px;"/>
        </g>
        <g transform="matrix(1,0,0,-1,1,1038.5)">
            <path d="M0,0L1402,0" style="fill:none;fill-rule:nonzero;stroke:black;stroke-width:0.5px;"/>
        </g>
        <g transform="matrix(0.580604,0,0,-0.580604,588.994,1090.5)">
            <path d="M0,0L1402,0" style="fill:none;fill-rule:nonzero;stroke:black;stroke-width:0.5px;"/>
        </g>
        <g transform="matrix(1,0,0,-1,1,1142.5)">
            <path d="M0,0L1402,0" style="fill:none;fill-rule:nonzero;stroke:black;stroke-width:0.5px;"/>
        </g>
        <g transform="matrix(1,0,0,-1,1,1194.5)">
            <path d="M0,0L1402,0" style="fill:none;fill-rule:nonzero;stroke:black;stroke-width:0.5px;"/>
        </g>
        <g transform="matrix(1,0,0,-1,1,1246.5)">
            <path d="M0,0L1402,0" style="fill:none;fill-rule:nonzero;stroke:black;stroke-width:0.5px;"/>
        </g>
        <g transform="matrix(1,0,0,-1,1,1298.5)">
            <path d="M0,0L1402,0" style="fill:none;fill-rule:nonzero;stroke:black;stroke-width:0.5px;"/>
        </g>
        <g transform="matrix(1,0,0,-1,1,1350.5)">
            <path d="M0,0L1402,0" style="fill:none;fill-rule:nonzero;stroke:black;stroke-width:0.5px;"/>
        </g>
        <g transform="matrix(1,0,0,-1,1,1402.5)">
            <path d="M0,0L1402,0" style="fill:none;fill-rule:nonzero;stroke:black;stroke-width:0.5px;"/>
        </g>
        <g transform="matrix(1,0,0,-1,1,1454.5)">
            <path d="M0,0L1402,0" style="fill:none;fill-rule:nonzero;stroke:black;stroke-width:0.5px;"/>
        </g>
        <g transform="matrix(1,0,0,-1,1,1506.5)">
            <path d="M0,0L1402,0" style="fill:none;fill-rule:nonzero;stroke:black;stroke-width:0.5px;"/>
        </g>
        <g transform="matrix(1,0,0,-1,1,1558.5)">
            <path d="M0,0L1402,0" style="fill:none;fill-rule:nonzero;stroke:black;stroke-width:0.5px;"/>
        </g>
        <g transform="matrix(1,0,0,-1,1,1610.5)">
            <path d="M0,0L1402,0" style="fill:none;fill-rule:nonzero;stroke:black;stroke-width:0.5px;"/>
        </g>
        <g transform="matrix(1,0,0,-1,1,1662.5)">
            <path d="M0,0L1402,0" style="fill:none;fill-rule:nonzero;stroke:black;stroke-width:0.5px;"/>
        </g>
        <g transform="matrix(1,0,0,-1,1,1714.5)">
            <path d="M0,0L1402,0" style="fill:none;fill-rule:nonzero;stroke:black;stroke-width:0.5px;"/>
        </g>
        <g transform="matrix(1,0,0,-1,1,1766.5)">
            <path d="M0,0L1402,0" style="fill:none;fill-rule:nonzero;stroke:black;stroke-width:0.5px;"/>
        </g>
        <g transform="matrix(1,0,0,-1,1,1818.5)">
            <path d="M0,0L1402,0" style="fill:none;fill-rule:nonzero;stroke:black;stroke-width:0.5px;"/>
        </g>
        <g transform="matrix(1,0,0,-1,1,1870.5)">
            <path d="M0,0L1402,0" style="fill:none;fill-rule:nonzero;stroke:black;stroke-width:0.5px;"/>
        </g>
        <g transform="matrix(1,0,0,1,202.607,182.635)">
            <text x="0px" y="0px" style="font-family:'ArialMT', 'Arial', sans-serif;font-size:70px;">URGENT</text>
        </g>
        <g transform="matrix(1,0,0,1,149.884,1111.41)">
            <g transform="matrix(70,0,0,70,418.804,0)">
            </g>
            <text x="0px" y="0px" style="font-family:'ArialMT', 'Arial', sans-serif;font-size:70px;">DELEGA<tspan x="278.804px 321.563px " y="0px 0px ">TE</tspan>D</text>
        </g>
        <g transform="matrix(1,0,0,1,435.944,86.1202)">
            <g>
                <g transform="matrix(1,0,0,1,354.232,97.055)">
                    <text x="0px" y="0px" style="font-family:'ArialMT', 'Arial', sans-serif;font-size:70px;">IMPOR</text>
                </g>
                <g transform="matrix(1,0,0,1,582.415,97.055)">
                    <text x="0px" y="0px" style="font-family:'ArialMT', 'Arial', sans-serif;font-size:70px;">T<tspan x="37.564px 84.253px " y="0px 0px ">AN</tspan>T</text>
                </g>
            </g>
        </g>
        <g transform="matrix(1,0,0,1,854.999,242.072)">
            <text x="0px" y="0px" style="font-family:'ArialMT', 'Arial', sans-serif;font-size:20px;fill-opacity:0.76;">What?</text>
        </g>
    </g>
</svg>
