<?xml version="1.0" encoding="UTF-8" standalone="no"?>
<!DOCTYPE svg PUBLIC "-//W3C//DTD SVG 1.1//EN" "http://www.w3.org/Graphics/SVG/1.1/DTD/svg11.dtd">
<svg width="100%" height="100%" viewBox="0 0 1404 1872" version="1.1" xmlns="http://www.w3.org/2000/svg" xmlns:xlink="http://www.w3.org/1999/xlink" xml:space="preserve" xmlns:serif="http://www.serif.com/" style="fill-rule:evenodd;clip-rule:evenodd;stroke-linecap:round;stroke-linejoin:round;stroke-miterlimit:1.5;">
    <g id="surface1">
        <g transform="matrix(6.22824,0,0,13.5083,-1658.47,-7872.49)">
            <rect x="264.299" y="582.828" width="227.446" height="138.713" style="fill:rgb(187,189,192);"/>
        </g>
        <g transform="matrix(1,0,0,1,1076.59,803.898)">
            <text x="0px" y="50.142px" style="font-family:'ArialMT', 'Arial', sans-serif;font-size:70px;">FT</text>
        </g>
        <g transform="matrix(1,0,0,1,133.445,818.756)">
            <g transform="matrix(70,0,0,70,171.104,50.1416)">
            </g>
            <text x="0px" y="50.142px" style="font-family:'ArialMT', 'Arial', sans-serif;font-size:70px;">DrPH</text>
        </g>
        <g transform="matrix(1,0,0,1,130.758,929.036)">
            <g transform="matrix(70,0,0,70,143.931,50.1416)">
            </g>
            <text x="0px" y="50.142px" style="font-family:'ArialMT', 'Arial', sans-serif;font-size:70px;">PUB</text>
        </g>
        <g transform="matrix(4.97728,0,0,2.85083,-1176.76,-1574.35)">
            <rect x="264.299" y="582.828" width="227.446" height="138.713" style="fill:white;stroke:black;stroke-width:2.96px;"/>
        </g>
        <g transform="matrix(3.25965,0,0,1.01099,-332.421,-74.0318)">
            <rect x="264.299" y="582.828" width="227.446" height="138.713" style="fill:white;stroke:black;stroke-width:4.97px;"/>
        </g>
        <g transform="matrix(2.84048,0,0,1.01099,-129.803,313.199)">
            <rect x="264.299" y="582.828" width="227.446" height="138.713" style="fill:white;stroke:black;stroke-width:5.63px;"/>
        </g>
        <g transform="matrix(0.327914,0,0,0.577175,876.546,456.807)">
            <rect x="264.299" y="582.828" width="227.446" height="138.713" style="fill:white;stroke:black;stroke-width:25.56px;"/>
        </g>
        <g transform="matrix(0.327914,0,0,0.577175,247.414,367.805)">
            <rect x="264.299" y="582.828" width="227.446" height="138.713" style="fill:white;stroke:black;stroke-width:25.56px;"/>
        </g>
        <g transform="matrix(0.327914,0,0,0.577175,247.414,471.273)">
            <rect x="264.299" y="582.828" width="227.446" height="138.713" style="fill:white;stroke:black;stroke-width:25.56px;"/>
        </g>
        <g transform="matrix(0.327914,0,0,0.577175,1106.56,340.793)">
            <rect x="264.299" y="582.828" width="227.446" height="138.713" style="fill:white;stroke:black;stroke-width:25.56px;"/>
        </g>
        <g transform="matrix(0.651184,0,0,0.970114,1037.18,1098.34)">
            <rect x="264.299" y="582.828" width="227.446" height="138.713" style="fill:white;stroke:black;stroke-width:14.52px;"/>
        </g>
        <g transform="matrix(0.327914,0,0,0.577175,262.717,875.047)">
            <rect x="264.299" y="582.828" width="227.446" height="138.713" style="fill:white;stroke:black;stroke-width:25.56px;"/>
        </g>
        <g transform="matrix(0.327914,0,0,0.577175,789.792,875.047)">
            <rect x="264.299" y="582.828" width="227.446" height="138.713" style="fill:white;stroke:black;stroke-width:25.56px;"/>
        </g>
        <g transform="matrix(0.327914,0,0,0.577175,262.717,977.868)">
            <rect x="264.299" y="582.828" width="227.446" height="138.713" style="fill:white;stroke:black;stroke-width:25.56px;"/>
        </g>
        <g transform="matrix(0.327914,0,0,0.577175,789.792,977.868)">
            <rect x="264.299" y="582.828" width="227.446" height="138.713" style="fill:white;stroke:black;stroke-width:25.56px;"/>
        </g>
        <g transform="matrix(0.327914,0,0,0.577175,262.717,1079.4)">
            <rect x="264.299" y="582.828" width="227.446" height="138.713" style="fill:white;stroke:black;stroke-width:25.56px;"/>
        </g>
        <g transform="matrix(0.327914,0,0,0.577175,789.792,1079.4)">
            <rect x="264.299" y="582.828" width="227.446" height="138.713" style="fill:white;stroke:black;stroke-width:25.56px;"/>
        </g>
        <g transform="matrix(0.327914,0,0,0.577175,262.717,1183.71)">
            <rect x="264.299" y="582.828" width="227.446" height="138.713" style="fill:white;stroke:black;stroke-width:25.56px;"/>
        </g>
        <g transform="matrix(0.327914,0,0,0.577175,789.792,1183.71)">
            <rect x="264.299" y="582.828" width="227.446" height="138.713" style="fill:white;stroke:black;stroke-width:25.56px;"/>
        </g>
        <g transform="matrix(0.327914,0,0,0.577175,262.717,1286.45)">
            <rect x="264.299" y="582.828" width="227.446" height="138.713" style="fill:white;stroke:black;stroke-width:25.56px;"/>
        </g>
        <g transform="matrix(0.327914,0,0,0.577175,789.792,1286.45)">
            <rect x="264.299" y="582.828" width="227.446" height="138.713" style="fill:white;stroke:black;stroke-width:25.56px;"/>
        </g>
        <g transform="matrix(0.327914,0,0,0.577175,262.717,1387.85)">
            <rect x="264.299" y="582.828" width="227.446" height="138.713" style="fill:white;stroke:black;stroke-width:25.56px;"/>
        </g>
        <g transform="matrix(0.327914,0,0,0.577175,789.792,1387.85)">
            <rect x="264.299" y="582.828" width="227.446" height="138.713" style="fill:white;stroke:black;stroke-width:25.56px;"/>
        </g>
        <g transform="matrix(0.327914,0,0,0.577175,370.034,875.047)">
            <rect x="264.299" y="582.828" width="227.446" height="138.713" style="fill:white;stroke:black;stroke-width:25.56px;"/>
        </g>
        <g transform="matrix(0.327914,0,0,0.577175,897.109,875.047)">
            <rect x="264.299" y="582.828" width="227.446" height="138.713" style="fill:white;stroke:black;stroke-width:25.56px;"/>
        </g>
        <g transform="matrix(0.327914,0,0,0.577175,370.034,977.868)">
            <rect x="264.299" y="582.828" width="227.446" height="138.713" style="fill:white;stroke:black;stroke-width:25.56px;"/>
        </g>
        <g transform="matrix(0.327914,0,0,0.577175,897.109,977.868)">
            <rect x="264.299" y="582.828" width="227.446" height="138.713" style="fill:white;stroke:black;stroke-width:25.56px;"/>
        </g>
        <g transform="matrix(0.327914,0,0,0.577175,370.034,1079.4)">
            <rect x="264.299" y="582.828" width="227.446" height="138.713" style="fill:white;stroke:black;stroke-width:25.56px;"/>
        </g>
        <g transform="matrix(0.327914,0,0,0.577175,897.109,1079.4)">
            <rect x="264.299" y="582.828" width="227.446" height="138.713" style="fill:white;stroke:black;stroke-width:25.56px;"/>
        </g>
        <g transform="matrix(0.327914,0,0,0.577175,370.034,1183.71)">
            <rect x="264.299" y="582.828" width="227.446" height="138.713" style="fill:white;stroke:black;stroke-width:25.56px;"/>
        </g>
        <g transform="matrix(0.327914,0,0,0.577175,897.109,1183.71)">
            <rect x="264.299" y="582.828" width="227.446" height="138.713" style="fill:white;stroke:black;stroke-width:25.56px;"/>
        </g>
        <g transform="matrix(0.327914,0,0,0.577175,370.034,1286.45)">
            <rect x="264.299" y="582.828" width="227.446" height="138.713" style="fill:white;stroke:black;stroke-width:25.56px;"/>
        </g>
        <g transform="matrix(0.327914,0,0,0.577175,897.109,1286.45)">
            <rect x="264.299" y="582.828" width="227.446" height="138.713" style="fill:white;stroke:black;stroke-width:25.56px;"/>
        </g>
        <g transform="matrix(0.327914,0,0,0.577175,370.034,1387.85)">
            <rect x="264.299" y="582.828" width="227.446" height="138.713" style="fill:white;stroke:black;stroke-width:25.56px;"/>
        </g>
        <g transform="matrix(0.327914,0,0,0.577175,897.109,1387.85)">
            <rect x="264.299" y="582.828" width="227.446" height="138.713" style="fill:white;stroke:black;stroke-width:25.56px;"/>
        </g>
        <g transform="matrix(0.327914,0,0,0.577175,1105.34,454.202)">
            <rect x="264.299" y="582.828" width="227.446" height="138.713" style="fill:white;stroke:black;stroke-width:25.56px;"/>
        </g>
        <g transform="matrix(0.327914,0,0,0.577175,244.437,579.34)">
            <rect x="264.299" y="582.828" width="227.446" height="138.713" style="fill:white;stroke:black;stroke-width:25.56px;"/>
        </g>
        <g transform="matrix(1,0,0,1,0,22.0119)">
            <g transform="matrix(70,0,0,70,504.921,582.588)">
            </g>
            <text x="156.185px" y="582.588px" style="font-family:'ArialMT', 'Arial', sans-serif;font-size:70px;">END DA<tspan x="415.472px 458.231px " y="582.588px 582.588px ">TE</tspan></text>
        </g>
        <g transform="matrix(1,0,0,1,475.682,382.478)">
            <g transform="matrix(40,0,0,40,302.923,561.099)">
            </g>
            <text x="156.185px" y="561.099px" style="font-family:'ArialMT', 'Arial', sans-serif;font-size:40px;">Scheme</text>
        </g>
        <g transform="matrix(1,0,0,1,692.207,275.285)">
            <text x="156.185px" y="582.588px" style="font-family:'ArialMT', 'Arial', sans-serif;font-size:70px;">PT</text>
        </g>
        <g transform="matrix(1,0,0,1,-21.1473,186.284)">
            <text x="156.185px" y="582.588px" style="font-family:'ArialMT', 'Arial', sans-serif;font-size:70px;">PhD</text>
        </g>
        <g transform="matrix(1,0,0,1,624.539,159.271)">
            <text x="156.185px" y="582.588px" style="font-family:'ArialMT', 'Arial', sans-serif;font-size:70px;">UPGRADED</text>
        </g>
        <g transform="matrix(1,0,0,1,-5.84718,573.589)">
            <g transform="matrix(70,0,0,70,937.977,582.554)">
            </g>
            <text x="156.185px" y="582.554px" style="font-family:'Arial-BoldMT', 'Arial', sans-serif;font-weight:700;font-size:70px;">PROGRESS MEETINGS</text>
        </g>
        <g transform="matrix(1,0,0,1,1064.24,1062.38)">
            <text x="156.185px" y="582.588px" style="font-family:'Arial-BoldMT', 'Arial', sans-serif;font-weight:700;font-size:70px;">IOS</text>
        </g>
        <g transform="matrix(1,0,0,1,-7.4658,693.525)">
            <text x="156.185px" y="582.588px" style="font-family:'ArialMT', 'Arial', sans-serif;font-size:70px;">2024</text>
        </g>
        <g transform="matrix(1,0,0,1,519.609,693.525)">
            <text x="156.185px" y="582.588px" style="font-family:'ArialMT', 'Arial', sans-serif;font-size:70px;">2030</text>
        </g>
        <g transform="matrix(1,0,0,1,-7.4658,796.347)">
            <text x="156.185px" y="582.588px" style="font-family:'ArialMT', 'Arial', sans-serif;font-size:70px;">2025</text>
        </g>
        <g transform="matrix(1,0,0,1,519.609,796.347)">
            <text x="156.185px" y="582.588px" style="font-family:'ArialMT', 'Arial', sans-serif;font-size:70px;">2031</text>
        </g>
        <g transform="matrix(1,0,0,1,-7.4658,897.875)">
            <text x="156.185px" y="582.588px" style="font-family:'ArialMT', 'Arial', sans-serif;font-size:70px;">2026</text>
        </g>
        <g transform="matrix(1,0,0,1,519.609,897.875)">
            <text x="156.185px" y="582.588px" style="font-family:'ArialMT', 'Arial', sans-serif;font-size:70px;">2032</text>
        </g>
        <g transform="matrix(1,0,0,1,-7.4658,1002.19)">
            <text x="156.185px" y="582.588px" style="font-family:'ArialMT', 'Arial', sans-serif;font-size:70px;">2027</text>
        </g>
        <g transform="matrix(1,0,0,1,519.609,1002.19)">
            <text x="156.185px" y="582.588px" style="font-family:'ArialMT', 'Arial', sans-serif;font-size:70px;">2033</text>
        </g>
        <g transform="matrix(1,0,0,1,-7.4658,1104.93)">
            <text x="156.185px" y="582.588px" style="font-family:'ArialMT', 'Arial', sans-serif;font-size:70px;">2028</text>
        </g>
        <g transform="matrix(1,0,0,1,519.609,1104.93)">
            <text x="156.185px" y="582.588px" style="font-family:'ArialMT', 'Arial', sans-serif;font-size:70px;">2034</text>
        </g>
        <g transform="matrix(1,0,0,1,-7.4658,1206.33)">
            <text x="156.185px" y="582.588px" style="font-family:'ArialMT', 'Arial', sans-serif;font-size:70px;">2029</text>
        </g>
        <g transform="matrix(1,0,0,1,519.609,1206.33)">
            <text x="156.185px" y="582.588px" style="font-family:'ArialMT', 'Arial', sans-serif;font-size:70px;">2035</text>
        </g>
    </g>
</svg>
