<?xml version="1.0" encoding="UTF-8" standalone="no"?>
<!DOCTYPE svg PUBLIC "-//W3C//DTD SVG 1.1//EN" "http://www.w3.org/Graphics/SVG/1.1/DTD/svg11.dtd">
<svg width="100%" height="100%" viewBox="0 0 1620 2160" version="1.1" xmlns="http://www.w3.org/2000/svg" xmlns:xlink="http://www.w3.org/1999/xlink" xml:space="preserve" xmlns:serif="http://www.serif.com/" style="fill-rule:evenodd;clip-rule:evenodd;stroke-miterlimit:10;">
    <g id="Paper_background">
        <rect x="0" y="0" width="1404" height="1872" style="fill:white;"/>
    </g>
    <g id="LINES">
        <g transform="matrix(1.1532,0,0,1.1532,0.796368,-0.483396)">
            <rect x="0" y="0" width="1404" height="1872" style="fill:white;"/>
        </g>
        <g transform="matrix(1,0,0,1,188.505,40.1282)">
            <text x="0px" y="0px" style="font-family:'Arial-BoldMT', 'Arial', sans-serif;font-weight:700;font-size:32px;fill:rgb(243,122,124);">Date</text>
        </g>
        <g transform="matrix(1,0,0,1,173.616,230.888)">
            <text x="0px" y="0px" style="font-family:'Arial-BoldMT', 'Arial', sans-serif;font-weight:700;font-size:32px;fill:rgb(243,122,124);">People</text>
        </g>
        <g transform="matrix(1,0,0,1,167.876,918.846)">
            <text x="0px" y="0px" style="font-family:'Arial-BoldMT', 'Arial', sans-serif;font-weight:700;font-size:32px;fill:rgb(243,122,124);">Themes</text>
        </g>
        <g transform="matrix(1,0,0,1,179.871,1716.03)">
            <text x="0px" y="0px" style="font-family:'Arial-BoldMT', 'Arial', sans-serif;font-weight:700;font-size:32px;fill:rgb(243,122,124);">Actions</text>
        </g>
        <g transform="matrix(1,0,0,1,494.157,-40.0355)">
            <g>
                <g transform="matrix(1,0,0,1,459.74,80.096)">
                    <text x="0px" y="0px" style="font-family:'ArialMT', 'Arial', sans-serif;font-size:32px;fill:rgb(243,122,124);">T</text>
                </g>
                <g transform="matrix(1,0,0,1,475.74,80.096)">
                    <text x="0px" y="0px" style="font-family:'Arial-BoldMT', 'Arial', sans-serif;font-weight:700;font-size:32px;fill:rgb(243,122,124);">opic</text>
                </g>
            </g>
        </g>
        <g transform="matrix(1.19245,0,0,1.19245,21.7698,-0.24274)">
            <path d="M450.5,0.2L450.5,1399.2" style="fill:none;fill-rule:nonzero;stroke:black;stroke-width:3.5px;"/>
        </g>
        <g transform="matrix(1.15206,0,0,1.15206,0,55.9352)">
            <path d="M0,1399.7L1404,1399.7" style="fill:none;fill-rule:nonzero;stroke:black;stroke-width:3px;"/>
        </g>
        <g transform="matrix(1.10815,0,0,0.789797,63.6538,47.7064)">
            <path d="M450,1322.7L1404,1322.7" style="fill:none;fill-rule:nonzero;stroke:black;stroke-width:0.5px;"/>
        </g>
        <g transform="matrix(1.10815,0,0,0.789797,63.6538,294.328)">
            <path d="M450,1322.7L1404,1322.7" style="fill:none;fill-rule:nonzero;stroke:black;stroke-width:0.5px;"/>
        </g>
        <g transform="matrix(1.10815,0,0,0.789797,63.6538,47.7064)">
            <path d="M450,1246.7L1404,1246.7" style="fill:none;fill-rule:nonzero;stroke:black;stroke-width:0.5px;"/>
        </g>
        <g transform="matrix(1.10815,0,0,0.789797,63.6538,47.7064)">
            <path d="M450,1170.7L1404,1170.7" style="fill:none;fill-rule:nonzero;stroke:black;stroke-width:0.5px;"/>
        </g>
        <g transform="matrix(1.10815,0,0,0.789797,63.6538,660.018)">
            <path d="M450,1170.7L1404,1170.7" style="fill:none;fill-rule:nonzero;stroke:black;stroke-width:0.5px;"/>
        </g>
        <g transform="matrix(1.10815,0,0,0.789797,63.6538,47.7064)">
            <path d="M450,1093.7L1404,1093.7" style="fill:none;fill-rule:nonzero;stroke:black;stroke-width:0.5px;"/>
        </g>
        <g transform="matrix(1.10815,0,0,0.789797,63.6538,413.397)">
            <path d="M450,1093.7L1404,1093.7" style="fill:none;fill-rule:nonzero;stroke:black;stroke-width:0.5px;"/>
        </g>
        <g transform="matrix(1.10815,0,0,0.789797,63.6538,660.018)">
            <path d="M450,1093.7L1404,1093.7" style="fill:none;fill-rule:nonzero;stroke:black;stroke-width:0.5px;"/>
        </g>
        <g transform="matrix(1.10815,0,0,0.789797,63.6538,413.397)">
            <path d="M450,1017.7L1404,1017.7" style="fill:none;fill-rule:nonzero;stroke:black;stroke-width:0.5px;"/>
        </g>
        <g transform="matrix(1.10815,0,0,0.789797,63.6538,660.018)">
            <path d="M450,1017.7L1404,1017.7" style="fill:none;fill-rule:nonzero;stroke:black;stroke-width:0.5px;"/>
        </g>
        <g transform="matrix(1.10815,0,0,0.789797,63.6538,413.397)">
            <path d="M450,941.7L1404,941.7" style="fill:none;fill-rule:nonzero;stroke:black;stroke-width:0.5px;"/>
        </g>
        <g transform="matrix(1.10815,0,0,0.789797,63.6538,660.018)">
            <path d="M450,941.7L1404,941.7" style="fill:none;fill-rule:nonzero;stroke:black;stroke-width:0.5px;"/>
        </g>
        <g transform="matrix(1.69734,0,0,0.789797,-763.565,47.7064)">
            <path d="M450,635.7L1404,635.7" style="fill:none;fill-rule:nonzero;stroke:black;stroke-width:0.5px;"/>
        </g>
        <g transform="matrix(1.10996,0,0,0.5042,61.1067,532.654)">
            <path d="M450,635.7L1404,635.7" style="fill:none;fill-rule:nonzero;stroke:black;stroke-width:0.5px;"/>
        </g>
        <g transform="matrix(1.69734,0,0,0.789797,-763.565,-12.2804)">
            <path d="M450,635.7L1404,635.7" style="fill:none;fill-rule:nonzero;stroke:black;stroke-width:0.5px;"/>
        </g>
        <g transform="matrix(1.69734,0,0,0.789797,-763.565,291.113)">
            <path d="M450,635.7L1404,635.7" style="fill:none;fill-rule:nonzero;stroke:black;stroke-width:0.5px;"/>
        </g>
        <g transform="matrix(0.583717,0,0,0.461017,-260.589,596.518)">
            <path d="M450,559.7L1404,559.7" style="fill:none;fill-rule:nonzero;stroke:black;stroke-width:7.08px;"/>
        </g>
        <g transform="matrix(1.69707,0,0,0.789671,-763.184,47.7673)">
            <path d="M450,483.7L1404,483.7" style="fill:none;fill-rule:nonzero;stroke:black;stroke-width:0.5px;"/>
        </g>
        <g transform="matrix(1.69707,0,0,0.789671,-763.184,351.161)">
            <path d="M450,483.7L1404,483.7" style="fill:none;fill-rule:nonzero;stroke:black;stroke-width:0.5px;"/>
        </g>
        <g transform="matrix(1.69734,0,0,0.789797,-763.565,47.7064)">
            <path d="M450,406.7L1404,406.7" style="fill:none;fill-rule:nonzero;stroke:black;stroke-width:0.5px;"/>
        </g>
        <g transform="matrix(1.69734,0,0,0.789797,-763.565,351.1)">
            <path d="M450,406.7L1404,406.7" style="fill:none;fill-rule:nonzero;stroke:black;stroke-width:0.5px;"/>
        </g>
        <g transform="matrix(1.69734,0,0,0.789797,-763.565,47.7064)">
            <path d="M450,330.7L1404,330.7" style="fill:none;fill-rule:nonzero;stroke:black;stroke-width:0.5px;"/>
        </g>
        <g transform="matrix(1.69734,0,0,0.789797,-763.565,351.1)">
            <path d="M450,330.7L1404,330.7" style="fill:none;fill-rule:nonzero;stroke:black;stroke-width:0.5px;"/>
        </g>
        <g transform="matrix(1.11293,0,0,0.517861,56.9489,116.968)">
            <path d="M450,254.7L1404,254.7" style="fill:none;fill-rule:nonzero;stroke:black;stroke-width:0.5px;"/>
        </g>
        <g transform="matrix(1.22214,0,0,0.965242,-99.9626,16.5299)">
            <path d="M450,177.7L1404,177.7" style="fill:none;fill-rule:nonzero;stroke:black;stroke-width:3.33px;"/>
        </g>
        <g transform="matrix(0.472388,0,0,0.373091,-211.88,149.713)">
            <path d="M450,101.7L1404,101.7" style="fill:none;fill-rule:nonzero;stroke:black;stroke-width:7.05px;"/>
        </g>
    </g>
</svg>
