<?xml version="1.0" encoding="UTF-8" standalone="no"?>
<!DOCTYPE svg PUBLIC "-//W3C//DTD SVG 1.1//EN" "http://www.w3.org/Graphics/SVG/1.1/DTD/svg11.dtd">
<svg width="100%" height="100%" viewBox="0 0 1404 1872" version="1.1" xmlns="http://www.w3.org/2000/svg" xmlns:xlink="http://www.w3.org/1999/xlink" xml:space="preserve" xmlns:serif="http://www.serif.com/" style="fill-rule:evenodd;clip-rule:evenodd;stroke-linejoin:round;stroke-miterlimit:2;">
    <g id="surface1">
        <rect x="0" y="0" width="1404" height="1872" style="fill:rgb(254,254,254);"/>
        <g transform="matrix(2.36002,0,0,16.9769,5.15344,118.9)">
            <rect x="-3.789" y="-6.707" width="594.983" height="109.894" style="fill:rgb(34,34,34);fill-opacity:0.24;"/>
        </g>
        <g transform="matrix(0.505996,0,0,1.25247,152.902,1700.76)">
            <rect x="-3.789" y="-6.707" width="594.983" height="109.894" style="fill:white;stroke:black;stroke-width:5.23px;"/>
        </g>
        <g transform="matrix(0.505996,0,0,1.25247,463.442,1542.76)">
            <rect x="-3.789" y="-6.707" width="594.983" height="109.894" style="fill:white;stroke:black;stroke-width:5.23px;"/>
        </g>
        <g transform="matrix(0.505996,0,0,1.25247,463.442,1700.76)">
            <rect x="-3.789" y="-6.707" width="594.983" height="109.894" style="fill:white;stroke:black;stroke-width:5.23px;"/>
        </g>
        <g transform="matrix(0.505996,0,0,1.25247,775.43,1542.76)">
            <rect x="-3.789" y="-6.707" width="594.983" height="109.894" style="fill:white;stroke:black;stroke-width:5.23px;"/>
        </g>
        <g transform="matrix(0.505996,0,0,1.25247,775.43,1700.76)">
            <rect x="-3.789" y="-6.707" width="594.983" height="109.894" style="fill:white;stroke:black;stroke-width:5.23px;"/>
        </g>
        <g transform="matrix(0.505996,0,0,1.25247,1088.21,1542.76)">
            <rect x="-3.789" y="-6.707" width="594.983" height="109.894" style="fill:white;stroke:black;stroke-width:5.23px;"/>
        </g>
        <g transform="matrix(0.505996,0,0,1.25247,1088.21,1700.76)">
            <rect x="-3.789" y="-6.707" width="594.983" height="109.894" style="fill:white;stroke:black;stroke-width:5.23px;"/>
        </g>
        <g transform="matrix(8.17385e-17,1.33489,1.33489,-8.17385e-17,2.69786,1.97911)">
            <path d="M0,0L1402,0" style="fill:none;fill-rule:nonzero;stroke:black;stroke-width:4.12px;stroke-linejoin:miter;stroke-miterlimit:10;"/>
        </g>
        <g transform="matrix(8.17385e-17,1.33489,1.33489,-8.17385e-17,1401.59,1.97911)">
            <path d="M0,0L1402,0" style="fill:none;fill-rule:nonzero;stroke:black;stroke-width:4.12px;stroke-linejoin:miter;stroke-miterlimit:10;"/>
        </g>
        <g transform="matrix(1.00159,0,0,-2.66871,0.17479,2.93837)">
            <path d="M0,0L1402,0" style="fill:none;fill-rule:nonzero;stroke:black;stroke-width:4.12px;stroke-linejoin:miter;stroke-miterlimit:10;"/>
        </g>
        <g transform="matrix(0.201396,0,0,-1,158.124,1762.94)">
            <path d="M0,0L1402,0" style="fill:none;fill-rule:nonzero;stroke:black;stroke-width:0.5px;stroke-linejoin:miter;stroke-miterlimit:10;"/>
        </g>
        <g transform="matrix(0.201396,0,0,-1,472.396,1602.88)">
            <path d="M0,0L1402,0" style="fill:none;fill-rule:nonzero;stroke:black;stroke-width:0.5px;stroke-linejoin:miter;stroke-miterlimit:10;"/>
        </g>
        <g transform="matrix(0.201396,0,0,-1,472.396,1762.94)">
            <path d="M0,0L1402,0" style="fill:none;fill-rule:nonzero;stroke:black;stroke-width:0.5px;stroke-linejoin:miter;stroke-miterlimit:10;"/>
        </g>
        <g transform="matrix(0.201396,0,0,-1,785.076,1602.88)">
            <path d="M0,0L1402,0" style="fill:none;fill-rule:nonzero;stroke:black;stroke-width:0.5px;stroke-linejoin:miter;stroke-miterlimit:10;"/>
        </g>
        <g transform="matrix(0.201396,0,0,-1,785.076,1762.94)">
            <path d="M0,0L1402,0" style="fill:none;fill-rule:nonzero;stroke:black;stroke-width:0.5px;stroke-linejoin:miter;stroke-miterlimit:10;"/>
        </g>
        <g transform="matrix(0.201396,0,0,-1,1097.78,1602.88)">
            <path d="M0,0L1402,0" style="fill:none;fill-rule:nonzero;stroke:black;stroke-width:0.5px;stroke-linejoin:miter;stroke-miterlimit:10;"/>
        </g>
        <g transform="matrix(0.201396,0,0,-1,1097.78,1762.94)">
            <path d="M0,0L1402,0" style="fill:none;fill-rule:nonzero;stroke:black;stroke-width:0.5px;stroke-linejoin:miter;stroke-miterlimit:10;"/>
        </g>
        <g transform="matrix(0.505996,0,0,1.25247,152.902,1542.76)">
            <rect x="-3.789" y="-6.707" width="594.983" height="109.894" style="fill:rgb(34,34,34);fill-opacity:0.24;"/>
        </g>
        <g transform="matrix(0.505996,0,0,1.25247,152.902,1542.76)">
            <rect x="-3.789" y="-6.707" width="594.983" height="109.894" style="fill:white;stroke:black;stroke-width:5.23px;"/>
        </g>
        <g transform="matrix(0.201396,0,0,-1,158.124,1602.88)">
            <path d="M0,0L1402,0" style="fill:none;fill-rule:nonzero;stroke:black;stroke-width:0.5px;stroke-linejoin:miter;stroke-miterlimit:10;"/>
        </g>
        <g transform="matrix(0.201396,0,0,-1,158.124,1654.88)">
            <path d="M0,0L1402,0" style="fill:none;fill-rule:nonzero;stroke:black;stroke-width:0.5px;stroke-linejoin:miter;stroke-miterlimit:10;"/>
        </g>
        <g transform="matrix(1.01476,0,0,1.25247,152.158,265.863)">
            <rect x="-3.789" y="-6.707" width="594.983" height="109.894" style="fill:rgb(34,34,34);fill-opacity:0.24;"/>
        </g>
        <g transform="matrix(0.664449,0,0,1.25247,152.354,905.952)">
            <rect x="-3.789" y="-6.707" width="594.983" height="109.894" style="fill:rgb(34,34,34);fill-opacity:0.24;"/>
        </g>
        <g transform="matrix(0.664449,0,0,1.25247,571.259,905.952)">
            <rect x="-3.789" y="-6.707" width="594.983" height="109.894" style="fill:rgb(34,34,34);fill-opacity:0.24;"/>
        </g>
        <g transform="matrix(0.664449,0,0,1.25247,989.228,905.952)">
            <rect x="-3.789" y="-6.707" width="594.983" height="109.894" style="fill:rgb(34,34,34);fill-opacity:0.24;"/>
        </g>
        <g transform="matrix(1.01476,0,0,1.25247,152.158,451.056)">
            <rect x="-3.789" y="-6.707" width="594.983" height="109.894" style="fill:rgb(34,34,34);fill-opacity:0.24;"/>
        </g>
        <g transform="matrix(0.664449,0,0,1.25247,152.354,1091.15)">
            <rect x="-3.789" y="-6.707" width="594.983" height="109.894" style="fill:rgb(34,34,34);fill-opacity:0.24;"/>
        </g>
        <g transform="matrix(0.664449,0,0,1.25247,571.259,1091.15)">
            <rect x="-3.789" y="-6.707" width="594.983" height="109.894" style="fill:rgb(34,34,34);fill-opacity:0.24;"/>
        </g>
        <g transform="matrix(0.664449,0,0,1.25247,989.228,1091.15)">
            <rect x="-3.789" y="-6.707" width="594.983" height="109.894" style="fill:rgb(34,34,34);fill-opacity:0.24;"/>
        </g>
        <g transform="matrix(1.01476,0,0,1.25247,152.158,623.967)">
            <rect x="-3.789" y="-6.707" width="594.983" height="109.894" style="fill:rgb(34,34,34);fill-opacity:0.24;"/>
        </g>
        <g transform="matrix(0.664449,0,0,1.25247,152.354,1264.06)">
            <rect x="-3.789" y="-6.707" width="594.983" height="109.894" style="fill:rgb(34,34,34);fill-opacity:0.24;"/>
        </g>
        <g transform="matrix(0.664449,0,0,1.25247,571.259,1264.06)">
            <rect x="-3.789" y="-6.707" width="594.983" height="109.894" style="fill:rgb(34,34,34);fill-opacity:0.24;"/>
        </g>
        <g transform="matrix(0.664449,0,0,1.25247,989.228,1264.06)">
            <rect x="-3.789" y="-6.707" width="594.983" height="109.894" style="fill:rgb(34,34,34);fill-opacity:0.24;"/>
        </g>
        <g transform="matrix(1.01476,0,0,1.25247,782.921,265.863)">
            <rect x="-3.789" y="-6.707" width="594.983" height="109.894" style="fill:rgb(34,34,34);fill-opacity:0.24;"/>
        </g>
        <g transform="matrix(1.01476,0,0,1.25247,782.921,451.056)">
            <rect x="-3.789" y="-6.707" width="594.983" height="109.894" style="fill:rgb(34,34,34);fill-opacity:0.24;"/>
        </g>
        <g transform="matrix(1.01476,0,0,1.25247,782.921,623.967)">
            <rect x="-3.789" y="-6.707" width="594.983" height="109.894" style="fill:rgb(34,34,34);fill-opacity:0.24;"/>
        </g>
        <g transform="matrix(1.01476,0,0,1.25247,152.158,265.863)">
            <rect x="-3.789" y="-6.707" width="594.983" height="109.894" style="fill:white;stroke:black;stroke-width:4.39px;"/>
        </g>
        <g transform="matrix(0.664449,0,0,1.25247,152.354,905.952)">
            <rect x="-3.789" y="-6.707" width="594.983" height="109.894" style="fill:white;stroke:black;stroke-width:4.99px;"/>
        </g>
        <g transform="matrix(0.664449,0,0,1.25247,571.259,905.952)">
            <rect x="-3.789" y="-6.707" width="594.983" height="109.894" style="fill:white;stroke:black;stroke-width:4.99px;"/>
        </g>
        <g transform="matrix(0.664449,0,0,1.25247,989.228,905.952)">
            <rect x="-3.789" y="-6.707" width="594.983" height="109.894" style="fill:white;stroke:black;stroke-width:4.99px;"/>
        </g>
        <g transform="matrix(1.01476,0,0,1.25247,152.158,451.056)">
            <rect x="-3.789" y="-6.707" width="594.983" height="109.894" style="fill:white;stroke:black;stroke-width:4.39px;"/>
        </g>
        <g transform="matrix(0.664449,0,0,1.25247,152.354,1091.15)">
            <rect x="-3.789" y="-6.707" width="594.983" height="109.894" style="fill:white;stroke:black;stroke-width:4.99px;"/>
        </g>
        <g transform="matrix(0.664449,0,0,1.25247,571.259,1091.15)">
            <rect x="-3.789" y="-6.707" width="594.983" height="109.894" style="fill:white;stroke:black;stroke-width:4.99px;"/>
        </g>
        <g transform="matrix(0.664449,0,0,1.25247,989.228,1091.15)">
            <rect x="-3.789" y="-6.707" width="594.983" height="109.894" style="fill:white;stroke:black;stroke-width:4.99px;"/>
        </g>
        <g transform="matrix(1.01476,0,0,1.25247,152.158,623.967)">
            <rect x="-3.789" y="-6.707" width="594.983" height="109.894" style="fill:white;stroke:black;stroke-width:4.39px;"/>
        </g>
        <g transform="matrix(0.664449,0,0,1.25247,152.354,1264.06)">
            <rect x="-3.789" y="-6.707" width="594.983" height="109.894" style="fill:white;stroke:black;stroke-width:4.99px;"/>
        </g>
        <g transform="matrix(0.664449,0,0,1.25247,571.259,1264.06)">
            <rect x="-3.789" y="-6.707" width="594.983" height="109.894" style="fill:white;stroke:black;stroke-width:4.99px;"/>
        </g>
        <g transform="matrix(0.664449,0,0,1.25247,989.228,1264.06)">
            <rect x="-3.789" y="-6.707" width="594.983" height="109.894" style="fill:white;stroke:black;stroke-width:4.99px;"/>
        </g>
        <g transform="matrix(1.01476,0,0,1.25247,782.921,265.863)">
            <rect x="-3.789" y="-6.707" width="594.983" height="109.894" style="fill:white;stroke:black;stroke-width:4.39px;"/>
        </g>
        <g transform="matrix(1.01476,0,0,1.25247,782.921,451.056)">
            <rect x="-3.789" y="-6.707" width="594.983" height="109.894" style="fill:white;stroke:black;stroke-width:4.39px;"/>
        </g>
        <g transform="matrix(1.01476,0,0,1.25247,782.921,623.967)">
            <rect x="-3.789" y="-6.707" width="594.983" height="109.894" style="fill:white;stroke:black;stroke-width:4.39px;"/>
        </g>
        <g transform="matrix(0.403894,0,0,-1,162.629,325.982)">
            <path d="M0,0L1402,0" style="fill:none;fill-rule:nonzero;stroke:black;stroke-width:0.5px;stroke-linejoin:miter;stroke-miterlimit:10;"/>
        </g>
        <g transform="matrix(0.264463,0,0,-1,159.21,966.071)">
            <path d="M0,0L1402,0" style="fill:none;fill-rule:nonzero;stroke:black;stroke-width:0.5px;stroke-linejoin:miter;stroke-miterlimit:10;"/>
        </g>
        <g transform="matrix(0.264463,0,0,-1,578.116,966.071)">
            <path d="M0,0L1402,0" style="fill:none;fill-rule:nonzero;stroke:black;stroke-width:0.5px;stroke-linejoin:miter;stroke-miterlimit:10;"/>
        </g>
        <g transform="matrix(0.264463,0,0,-1,996.085,966.071)">
            <path d="M0,0L1402,0" style="fill:none;fill-rule:nonzero;stroke:black;stroke-width:0.5px;stroke-linejoin:miter;stroke-miterlimit:10;"/>
        </g>
        <g transform="matrix(0.403894,0,0,-1,162.629,511.175)">
            <path d="M0,0L1402,0" style="fill:none;fill-rule:nonzero;stroke:black;stroke-width:0.5px;stroke-linejoin:miter;stroke-miterlimit:10;"/>
        </g>
        <g transform="matrix(0.264463,0,0,-1,159.21,1151.26)">
            <path d="M0,0L1402,0" style="fill:none;fill-rule:nonzero;stroke:black;stroke-width:0.5px;stroke-linejoin:miter;stroke-miterlimit:10;"/>
        </g>
        <g transform="matrix(0.264463,0,0,-1,578.116,1151.26)">
            <path d="M0,0L1402,0" style="fill:none;fill-rule:nonzero;stroke:black;stroke-width:0.5px;stroke-linejoin:miter;stroke-miterlimit:10;"/>
        </g>
        <g transform="matrix(0.264463,0,0,-1,996.085,1151.26)">
            <path d="M0,0L1402,0" style="fill:none;fill-rule:nonzero;stroke:black;stroke-width:0.5px;stroke-linejoin:miter;stroke-miterlimit:10;"/>
        </g>
        <g transform="matrix(0.403894,0,0,-1,162.629,684.087)">
            <path d="M0,0L1402,0" style="fill:none;fill-rule:nonzero;stroke:black;stroke-width:0.5px;stroke-linejoin:miter;stroke-miterlimit:10;"/>
        </g>
        <g transform="matrix(0.264463,0,0,-1,159.21,1324.18)">
            <path d="M0,0L1402,0" style="fill:none;fill-rule:nonzero;stroke:black;stroke-width:0.5px;stroke-linejoin:miter;stroke-miterlimit:10;"/>
        </g>
        <g transform="matrix(0.264463,0,0,-1,578.116,1324.18)">
            <path d="M0,0L1402,0" style="fill:none;fill-rule:nonzero;stroke:black;stroke-width:0.5px;stroke-linejoin:miter;stroke-miterlimit:10;"/>
        </g>
        <g transform="matrix(0.264463,0,0,-1,996.085,1324.18)">
            <path d="M0,0L1402,0" style="fill:none;fill-rule:nonzero;stroke:black;stroke-width:0.5px;stroke-linejoin:miter;stroke-miterlimit:10;"/>
        </g>
        <g transform="matrix(0.403894,0,0,-1,793.393,325.982)">
            <path d="M0,0L1402,0" style="fill:none;fill-rule:nonzero;stroke:black;stroke-width:0.5px;stroke-linejoin:miter;stroke-miterlimit:10;"/>
        </g>
        <g transform="matrix(0.403894,0,0,-1,793.393,511.175)">
            <path d="M0,0L1402,0" style="fill:none;fill-rule:nonzero;stroke:black;stroke-width:0.5px;stroke-linejoin:miter;stroke-miterlimit:10;"/>
        </g>
        <g transform="matrix(0.403894,0,0,-1,793.393,684.087)">
            <path d="M0,0L1402,0" style="fill:none;fill-rule:nonzero;stroke:black;stroke-width:0.5px;stroke-linejoin:miter;stroke-miterlimit:10;"/>
        </g>
        <g transform="matrix(0.403894,0,0,-1,162.629,377.982)">
            <path d="M0,0L1402,0" style="fill:none;fill-rule:nonzero;stroke:black;stroke-width:0.5px;stroke-linejoin:miter;stroke-miterlimit:10;"/>
        </g>
        <g transform="matrix(0.264463,0,0,-1,159.21,1018.07)">
            <path d="M0,0L1402,0" style="fill:none;fill-rule:nonzero;stroke:black;stroke-width:0.5px;stroke-linejoin:miter;stroke-miterlimit:10;"/>
        </g>
        <g transform="matrix(0.264463,0,0,-1,578.116,1018.07)">
            <path d="M0,0L1402,0" style="fill:none;fill-rule:nonzero;stroke:black;stroke-width:0.5px;stroke-linejoin:miter;stroke-miterlimit:10;"/>
        </g>
        <g transform="matrix(0.264463,0,0,-1,996.085,1018.07)">
            <path d="M0,0L1402,0" style="fill:none;fill-rule:nonzero;stroke:black;stroke-width:0.5px;stroke-linejoin:miter;stroke-miterlimit:10;"/>
        </g>
        <g transform="matrix(0.403894,0,0,-1,162.629,563.175)">
            <path d="M0,0L1402,0" style="fill:none;fill-rule:nonzero;stroke:black;stroke-width:0.5px;stroke-linejoin:miter;stroke-miterlimit:10;"/>
        </g>
        <g transform="matrix(0.264463,0,0,-1,159.21,1203.26)">
            <path d="M0,0L1402,0" style="fill:none;fill-rule:nonzero;stroke:black;stroke-width:0.5px;stroke-linejoin:miter;stroke-miterlimit:10;"/>
        </g>
        <g transform="matrix(0.264463,0,0,-1,578.116,1203.26)">
            <path d="M0,0L1402,0" style="fill:none;fill-rule:nonzero;stroke:black;stroke-width:0.5px;stroke-linejoin:miter;stroke-miterlimit:10;"/>
        </g>
        <g transform="matrix(0.264463,0,0,-1,996.085,1203.26)">
            <path d="M0,0L1402,0" style="fill:none;fill-rule:nonzero;stroke:black;stroke-width:0.5px;stroke-linejoin:miter;stroke-miterlimit:10;"/>
        </g>
        <g transform="matrix(0.403894,0,0,-1,162.629,736.087)">
            <path d="M0,0L1402,0" style="fill:none;fill-rule:nonzero;stroke:black;stroke-width:0.5px;stroke-linejoin:miter;stroke-miterlimit:10;"/>
        </g>
        <g transform="matrix(0.264463,0,0,-1,159.21,1376.18)">
            <path d="M0,0L1402,0" style="fill:none;fill-rule:nonzero;stroke:black;stroke-width:0.5px;stroke-linejoin:miter;stroke-miterlimit:10;"/>
        </g>
        <g transform="matrix(0.264463,0,0,-1,578.116,1376.18)">
            <path d="M0,0L1402,0" style="fill:none;fill-rule:nonzero;stroke:black;stroke-width:0.5px;stroke-linejoin:miter;stroke-miterlimit:10;"/>
        </g>
        <g transform="matrix(0.264463,0,0,-1,996.085,1376.18)">
            <path d="M0,0L1402,0" style="fill:none;fill-rule:nonzero;stroke:black;stroke-width:0.5px;stroke-linejoin:miter;stroke-miterlimit:10;"/>
        </g>
        <g transform="matrix(0.403894,0,0,-1,793.393,377.982)">
            <path d="M0,0L1402,0" style="fill:none;fill-rule:nonzero;stroke:black;stroke-width:0.5px;stroke-linejoin:miter;stroke-miterlimit:10;"/>
        </g>
        <g transform="matrix(0.403894,0,0,-1,793.393,563.175)">
            <path d="M0,0L1402,0" style="fill:none;fill-rule:nonzero;stroke:black;stroke-width:0.5px;stroke-linejoin:miter;stroke-miterlimit:10;"/>
        </g>
        <g transform="matrix(0.403894,0,0,-1,793.393,736.087)">
            <path d="M0,0L1402,0" style="fill:none;fill-rule:nonzero;stroke:black;stroke-width:0.5px;stroke-linejoin:miter;stroke-miterlimit:10;"/>
        </g>
        <g transform="matrix(0.201396,0,0,-1,158.124,1814.94)">
            <path d="M0,0L1402,0" style="fill:none;fill-rule:nonzero;stroke:black;stroke-width:0.5px;stroke-linejoin:miter;stroke-miterlimit:10;"/>
        </g>
        <g transform="matrix(0.201396,0,0,-1,472.396,1654.88)">
            <path d="M0,0L1402,0" style="fill:none;fill-rule:nonzero;stroke:black;stroke-width:0.5px;stroke-linejoin:miter;stroke-miterlimit:10;"/>
        </g>
        <g transform="matrix(0.201396,0,0,-1,472.396,1814.94)">
            <path d="M0,0L1402,0" style="fill:none;fill-rule:nonzero;stroke:black;stroke-width:0.5px;stroke-linejoin:miter;stroke-miterlimit:10;"/>
        </g>
        <g transform="matrix(0.201396,0,0,-1,785.076,1654.88)">
            <path d="M0,0L1402,0" style="fill:none;fill-rule:nonzero;stroke:black;stroke-width:0.5px;stroke-linejoin:miter;stroke-miterlimit:10;"/>
        </g>
        <g transform="matrix(0.201396,0,0,-1,785.076,1814.94)">
            <path d="M0,0L1402,0" style="fill:none;fill-rule:nonzero;stroke:black;stroke-width:0.5px;stroke-linejoin:miter;stroke-miterlimit:10;"/>
        </g>
        <g transform="matrix(0.201396,0,0,-1,1097.78,1654.88)">
            <path d="M0,0L1402,0" style="fill:none;fill-rule:nonzero;stroke:black;stroke-width:0.5px;stroke-linejoin:miter;stroke-miterlimit:10;"/>
        </g>
        <g transform="matrix(0.201396,0,0,-1,1097.78,1814.94)">
            <path d="M0,0L1402,0" style="fill:none;fill-rule:nonzero;stroke:black;stroke-width:0.5px;stroke-linejoin:miter;stroke-miterlimit:10;"/>
        </g>
        <g transform="matrix(0.902344,0,0,-1.05357,137.279,1862.51)">
            <path d="M0,0L1402,0" style="fill:none;fill-rule:nonzero;stroke:black;stroke-width:0.5px;stroke-linejoin:miter;stroke-miterlimit:10;"/>
        </g>
        <g transform="matrix(1,0,0,1,202.607,182.635)">
            <g transform="matrix(70,0,0,70,486.206,0)">
            </g>
            <text x="0px" y="0px" style="font-family:'Arial-BoldMT', 'Arial', sans-serif;font-weight:700;font-size:70px;">IN PROGRESS</text>
        </g>
        <g transform="matrix(1,0,0,1,187.026,1498.88)">
            <g transform="matrix(70,0,0,70,290.391,0)">
            </g>
            <text x="0px" y="0px" style="font-family:'Arial-BoldMT', 'Arial', sans-serif;font-weight:700;font-size:70px;">P<tspan x="41.494px 92.046px " y="0px 0px ">AR</tspan>KED</text>
        </g>
        <g transform="matrix(1,0,0,1,190.63,852.333)">
            <g>
                <g transform="matrix(70,0,0,70,220.391,0)">
                </g>
                <text x="0px" y="0px" style="font-family:'Arial-BoldMT', 'Arial', sans-serif;font-weight:700;font-size:70px;">T<tspan x="41.494px 95.942px " y="0px 0px ">O </tspan>DO</text>
            </g>
        </g>
    </g>
</svg>
