<?xml version="1.0" encoding="UTF-8" standalone="no"?>
<!DOCTYPE svg PUBLIC "-//W3C//DTD SVG 1.1//EN" "http://www.w3.org/Graphics/SVG/1.1/DTD/svg11.dtd">
<svg width="100%" height="100%" viewBox="0 0 1404 1872" version="1.1" xmlns="http://www.w3.org/2000/svg" xmlns:xlink="http://www.w3.org/1999/xlink" xml:space="preserve" xmlns:serif="http://www.serif.com/" style="fill-rule:evenodd;clip-rule:evenodd;stroke-linecap:round;stroke-linejoin:round;stroke-miterlimit:1.5;">
    <g id="surface1">
        <g transform="matrix(6.22824,0,0,13.5083,-1658.47,-7872.49)">
            <rect x="264.299" y="582.828" width="227.446" height="138.713" style="fill:rgb(187,189,192);"/>
        </g>
        <g transform="matrix(1,0,0,1,1076.59,854.04)">
            <text x="0px" y="0px" style="font-family:'ArialMT', 'Arial', sans-serif;font-size:70px;">FT</text>
        </g>
        <g transform="matrix(1,0,0,1,133.445,868.898)">
            <text x="0px" y="0px" style="font-family:'ArialMT', 'Arial', sans-serif;font-size:70px;">DrPH</text>
        </g>
        <g transform="matrix(1,0,0,1,130.758,979.178)">
            <text x="0px" y="0px" style="font-family:'ArialMT', 'Arial', sans-serif;font-size:70px;">PUB</text>
        </g>
        <g transform="matrix(4.97728,0,0,2.85083,-1176.76,-1574.35)">
            <rect x="264.299" y="582.828" width="227.446" height="138.713" style="fill:white;stroke:black;stroke-width:2.96px;"/>
        </g>
        <g transform="matrix(3.25965,0,0,1.01099,-332.421,-74.0318)">
            <rect x="264.299" y="582.828" width="227.446" height="138.713" style="fill:white;stroke:black;stroke-width:4.97px;"/>
        </g>
        <g transform="matrix(2.84048,0,0,1.01099,-129.803,313.199)">
            <rect x="264.299" y="582.828" width="227.446" height="138.713" style="fill:white;stroke:black;stroke-width:5.63px;"/>
        </g>
        <g transform="matrix(0.327914,0,0,0.577175,876.546,456.807)">
            <rect x="264.299" y="582.828" width="227.446" height="138.713" style="fill:white;stroke:black;stroke-width:25.56px;"/>
        </g>
        <g transform="matrix(0.327914,0,0,0.577175,247.414,367.805)">
            <rect x="264.299" y="582.828" width="227.446" height="138.713" style="fill:white;stroke:black;stroke-width:25.56px;"/>
        </g>
        <g transform="matrix(0.327914,0,0,0.577175,247.414,471.273)">
            <rect x="264.299" y="582.828" width="227.446" height="138.713" style="fill:white;stroke:black;stroke-width:25.56px;"/>
        </g>
        <g transform="matrix(0.327914,0,0,0.577175,1106.56,340.793)">
            <rect x="264.299" y="582.828" width="227.446" height="138.713" style="fill:white;stroke:black;stroke-width:25.56px;"/>
        </g>
        <g transform="matrix(0.651184,0,0,0.970114,1037.18,1098.34)">
            <rect x="264.299" y="582.828" width="227.446" height="138.713" style="fill:white;stroke:black;stroke-width:14.52px;"/>
        </g>
        <g transform="matrix(0.327914,0,0,0.577175,262.717,875.047)">
            <rect x="264.299" y="582.828" width="227.446" height="138.713" style="fill:white;stroke:black;stroke-width:25.56px;"/>
        </g>
        <g transform="matrix(0.327914,0,0,0.577175,789.792,875.047)">
            <rect x="264.299" y="582.828" width="227.446" height="138.713" style="fill:white;stroke:black;stroke-width:25.56px;"/>
        </g>
        <g transform="matrix(0.327914,0,0,0.577175,262.717,977.868)">
            <rect x="264.299" y="582.828" width="227.446" height="138.713" style="fill:white;stroke:black;stroke-width:25.56px;"/>
        </g>
        <g transform="matrix(0.327914,0,0,0.577175,789.792,977.868)">
            <rect x="264.299" y="582.828" width="227.446" height="138.713" style="fill:white;stroke:black;stroke-width:25.56px;"/>
        </g>
        <g transform="matrix(0.327914,0,0,0.577175,262.717,1079.4)">
            <rect x="264.299" y="582.828" width="227.446" height="138.713" style="fill:white;stroke:black;stroke-width:25.56px;"/>
        </g>
        <g transform="matrix(0.327914,0,0,0.577175,789.792,1079.4)">
            <rect x="264.299" y="582.828" width="227.446" height="138.713" style="fill:white;stroke:black;stroke-width:25.56px;"/>
        </g>
        <g transform="matrix(0.327914,0,0,0.577175,262.717,1183.71)">
            <rect x="264.299" y="582.828" width="227.446" height="138.713" style="fill:white;stroke:black;stroke-width:25.56px;"/>
        </g>
        <g transform="matrix(0.327914,0,0,0.577175,789.792,1183.71)">
            <rect x="264.299" y="582.828" width="227.446" height="138.713" style="fill:white;stroke:black;stroke-width:25.56px;"/>
        </g>
        <g transform="matrix(0.327914,0,0,0.577175,262.717,1286.45)">
            <rect x="264.299" y="582.828" width="227.446" height="138.713" style="fill:white;stroke:black;stroke-width:25.56px;"/>
        </g>
        <g transform="matrix(0.327914,0,0,0.577175,789.792,1286.45)">
            <rect x="264.299" y="582.828" width="227.446" height="138.713" style="fill:white;stroke:black;stroke-width:25.56px;"/>
        </g>
        <g transform="matrix(0.327914,0,0,0.577175,262.717,1387.85)">
            <rect x="264.299" y="582.828" width="227.446" height="138.713" style="fill:white;stroke:black;stroke-width:25.56px;"/>
        </g>
        <g transform="matrix(0.327914,0,0,0.577175,789.792,1387.85)">
            <rect x="264.299" y="582.828" width="227.446" height="138.713" style="fill:white;stroke:black;stroke-width:25.56px;"/>
        </g>
        <g transform="matrix(0.327914,0,0,0.577175,370.034,875.047)">
            <rect x="264.299" y="582.828" width="227.446" height="138.713" style="fill:white;stroke:black;stroke-width:25.56px;"/>
        </g>
        <g transform="matrix(0.327914,0,0,0.577175,897.109,875.047)">
            <rect x="264.299" y="582.828" width="227.446" height="138.713" style="fill:white;stroke:black;stroke-width:25.56px;"/>
        </g>
        <g transform="matrix(0.327914,0,0,0.577175,370.034,977.868)">
            <rect x="264.299" y="582.828" width="227.446" height="138.713" style="fill:white;stroke:black;stroke-width:25.56px;"/>
        </g>
        <g transform="matrix(0.327914,0,0,0.577175,897.109,977.868)">
            <rect x="264.299" y="582.828" width="227.446" height="138.713" style="fill:white;stroke:black;stroke-width:25.56px;"/>
        </g>
        <g transform="matrix(0.327914,0,0,0.577175,370.034,1079.4)">
            <rect x="264.299" y="582.828" width="227.446" height="138.713" style="fill:white;stroke:black;stroke-width:25.56px;"/>
        </g>
        <g transform="matrix(0.327914,0,0,0.577175,897.109,1079.4)">
            <rect x="264.299" y="582.828" width="227.446" height="138.713" style="fill:white;stroke:black;stroke-width:25.56px;"/>
        </g>
        <g transform="matrix(0.327914,0,0,0.577175,370.034,1183.71)">
            <rect x="264.299" y="582.828" width="227.446" height="138.713" style="fill:white;stroke:black;stroke-width:25.56px;"/>
        </g>
        <g transform="matrix(0.327914,0,0,0.577175,897.109,1183.71)">
            <rect x="264.299" y="582.828" width="227.446" height="138.713" style="fill:white;stroke:black;stroke-width:25.56px;"/>
        </g>
        <g transform="matrix(0.327914,0,0,0.577175,370.034,1286.45)">
            <rect x="264.299" y="582.828" width="227.446" height="138.713" style="fill:white;stroke:black;stroke-width:25.56px;"/>
        </g>
        <g transform="matrix(0.327914,0,0,0.577175,897.109,1286.45)">
            <rect x="264.299" y="582.828" width="227.446" height="138.713" style="fill:white;stroke:black;stroke-width:25.56px;"/>
        </g>
        <g transform="matrix(0.327914,0,0,0.577175,370.034,1387.85)">
            <rect x="264.299" y="582.828" width="227.446" height="138.713" style="fill:white;stroke:black;stroke-width:25.56px;"/>
        </g>
        <g transform="matrix(0.327914,0,0,0.577175,897.109,1387.85)">
            <rect x="264.299" y="582.828" width="227.446" height="138.713" style="fill:white;stroke:black;stroke-width:25.56px;"/>
        </g>
        <g transform="matrix(0.327914,0,0,0.577175,1105.34,454.202)">
            <rect x="264.299" y="582.828" width="227.446" height="138.713" style="fill:white;stroke:black;stroke-width:25.56px;"/>
        </g>
        <g transform="matrix(0.327914,0,0,0.577175,244.437,579.34)">
            <rect x="264.299" y="582.828" width="227.446" height="138.713" style="fill:white;stroke:black;stroke-width:25.56px;"/>
        </g>
        <g transform="matrix(1,0,0,1,0,22.0119)">
            <g>
                <g transform="matrix(1,0,0,1,156.185,582.588)">
                    <text x="0px" y="0px" style="font-family:'ArialMT', 'Arial', sans-serif;font-size:70px;">END DA</text>
                </g>
                <g transform="matrix(1,0,0,1,415.472,582.588)">
                    <text x="0px" y="0px" style="font-family:'ArialMT', 'Arial', sans-serif;font-size:70px;">TE</text>
                </g>
            </g>
        </g>
        <g transform="matrix(1,0,0,1,631.867,943.577)">
            <text x="0px" y="0px" style="font-family:'ArialMT', 'Arial', sans-serif;font-size:40px;">Scheme</text>
        </g>
        <g transform="matrix(1,0,0,1,848.392,857.873)">
            <text x="0px" y="0px" style="font-family:'ArialMT', 'Arial', sans-serif;font-size:70px;">PT</text>
        </g>
        <g transform="matrix(1,0,0,1,135.038,768.872)">
            <text x="0px" y="0px" style="font-family:'ArialMT', 'Arial', sans-serif;font-size:70px;">PhD</text>
        </g>
        <g transform="matrix(1,0,0,1,780.724,741.859)">
            <text x="0px" y="0px" style="font-family:'ArialMT', 'Arial', sans-serif;font-size:70px;">UPGRADED</text>
        </g>
        <g transform="matrix(1,0,0,1,150.338,1156.14)">
            <text x="0px" y="0px" style="font-family:'Arial-BoldMT', 'Arial', sans-serif;font-weight:700;font-size:70px;">PROGRESS MEETINGS</text>
        </g>
        <g transform="matrix(1,0,0,1,1220.42,1644.97)">
            <text x="0px" y="0px" style="font-family:'Arial-BoldMT', 'Arial', sans-serif;font-weight:700;font-size:70px;">IOS</text>
        </g>
        <g transform="matrix(1,0,0,1,148.719,1276.11)">
            <text x="0px" y="0px" style="font-family:'ArialMT', 'Arial', sans-serif;font-size:70px;">2024</text>
        </g>
        <g transform="matrix(1,0,0,1,675.794,1276.11)">
            <text x="0px" y="0px" style="font-family:'ArialMT', 'Arial', sans-serif;font-size:70px;">2030</text>
        </g>
        <g transform="matrix(1,0,0,1,148.719,1378.93)">
            <text x="0px" y="0px" style="font-family:'ArialMT', 'Arial', sans-serif;font-size:70px;">2025</text>
        </g>
        <g transform="matrix(1,0,0,1,675.794,1378.93)">
            <text x="0px" y="0px" style="font-family:'ArialMT', 'Arial', sans-serif;font-size:70px;">2031</text>
        </g>
        <g transform="matrix(1,0,0,1,148.719,1480.46)">
            <text x="0px" y="0px" style="font-family:'ArialMT', 'Arial', sans-serif;font-size:70px;">2026</text>
        </g>
        <g transform="matrix(1,0,0,1,675.794,1480.46)">
            <text x="0px" y="0px" style="font-family:'ArialMT', 'Arial', sans-serif;font-size:70px;">2032</text>
        </g>
        <g transform="matrix(1,0,0,1,148.719,1584.78)">
            <text x="0px" y="0px" style="font-family:'ArialMT', 'Arial', sans-serif;font-size:70px;">2027</text>
        </g>
        <g transform="matrix(1,0,0,1,675.794,1584.78)">
            <text x="0px" y="0px" style="font-family:'ArialMT', 'Arial', sans-serif;font-size:70px;">2033</text>
        </g>
        <g transform="matrix(1,0,0,1,148.719,1687.52)">
            <text x="0px" y="0px" style="font-family:'ArialMT', 'Arial', sans-serif;font-size:70px;">2028</text>
        </g>
        <g transform="matrix(1,0,0,1,675.794,1687.52)">
            <text x="0px" y="0px" style="font-family:'ArialMT', 'Arial', sans-serif;font-size:70px;">2034</text>
        </g>
        <g transform="matrix(1,0,0,1,148.719,1788.92)">
            <text x="0px" y="0px" style="font-family:'ArialMT', 'Arial', sans-serif;font-size:70px;">2029</text>
        </g>
        <g transform="matrix(1,0,0,1,675.794,1788.92)">
            <text x="0px" y="0px" style="font-family:'ArialMT', 'Arial', sans-serif;font-size:70px;">2035</text>
        </g>
    </g>
</svg>
